<?xml version="1.0" encoding="UTF-8" standalone="no"?>
<!DOCTYPE svg PUBLIC "-//W3C//DTD SVG 1.1//EN" "http://www.w3.org/Graphics/SVG/1.1/DTD/svg11.dtd">
<svg width="100%" height="100%" viewBox="0 0 20 26" version="1.1" xmlns="http://www.w3.org/2000/svg" xmlns:xlink="http://www.w3.org/1999/xlink" xml:space="preserve" xmlns:serif="http://www.serif.com/" style="fill-rule:evenodd;clip-rule:evenodd;stroke-linejoin:round;stroke-miterlimit:2;">
    <g transform="matrix(0.0377331,0,0,0.123564,-68.866,-37.2408)">
        <rect x="1825.08" y="301.39" width="530.038" height="210.418" style="fill:rgb(254,185,18);"/>
    </g>
    <g transform="matrix(0.0209324,0,0,0.0209585,-5.08779,-8.66923)">
        <g transform="matrix(1,0,0,1,-197.155,67.8213)">
            <circle cx="664.732" cy="793.001" r="224.52"/>
        </g>
        <g transform="matrix(0.433415,0,0,0.433415,179.473,517.124)">
            <circle cx="664.732" cy="793.001" r="224.52" style="fill:rgb(254,185,18);"/>
        </g>
        <g transform="matrix(1,0,0,1,-197.155,67.8213)">
            <rect x="762.043" y="345.816" width="127.21" height="447.185"/>
        </g>
        <g transform="matrix(6.12323e-17,-1,0.71968,4.40677e-17,121.391,1302.89)">
            <rect x="762.043" y="345.816" width="127.21" height="447.185"/>
        </g>
        <g transform="matrix(6.12323e-17,-1,0.71968,4.40677e-17,304.405,2070.05)">
            <rect x="762.043" y="345.816" width="127.21" height="447.185"/>
        </g>
        <g transform="matrix(6.12323e-17,-1,0.71968,4.40677e-17,304.405,2292.72)">
            <rect x="762.043" y="345.816" width="127.21" height="447.185"/>
        </g>
        <g transform="matrix(-1,0,0,-1,1637.15,1653.82)">
            <circle cx="664.732" cy="793.001" r="224.52"/>
        </g>
        <g transform="matrix(-0.433415,0,0,-0.433415,1260.53,1204.52)">
            <circle cx="664.732" cy="793.001" r="224.52" style="fill:rgb(254,185,18);"/>
        </g>
        <g transform="matrix(-1,0,0,-1,1637.15,1653.82)">
            <rect x="762.043" y="345.816" width="127.21" height="447.185"/>
        </g>
        <g transform="matrix(-1,0,0,-1,1223.82,2420.98)">
            <circle cx="664.732" cy="793.001" r="224.52"/>
        </g>
        <g transform="matrix(-1.52992,1.25875e-16,1.25875e-16,-0.502074,1822.26,2026.13)">
            <rect x="762.043" y="345.816" width="127.21" height="447.185" style="fill:rgb(254,185,18);"/>
        </g>
        <g transform="matrix(-1,0,0,-1,1545.65,2420.98)">
            <circle cx="664.732" cy="793.001" r="224.52"/>
        </g>
        <g transform="matrix(-0.203784,-2.81216e-17,-2.81216e-17,-0.433415,1056.33,2028.57)">
            <circle cx="664.732" cy="793.001" r="224.52" style="fill:rgb(254,185,18);"/>
        </g>
        <g transform="matrix(-0.203784,-2.81216e-17,-2.81216e-17,-0.433415,666.645,2028.57)">
            <circle cx="664.732" cy="793.001" r="224.52" style="fill:rgb(254,185,18);"/>
        </g>
        <g transform="matrix(-1.52992,1.25875e-16,1.25875e-16,-0.502074,2144.09,2026.13)">
            <rect x="762.043" y="345.816" width="127.21" height="447.185" style="fill:rgb(254,185,18);"/>
        </g>
        <g transform="matrix(-7.84079,8.91341e-16,8.91341e-16,-0.562437,7268.01,2074)">
            <rect x="762.043" y="345.816" width="127.21" height="447.185" style="fill:rgb(254,185,18);"/>
        </g>
    </g>
</svg>
