<?xml version="1.0" encoding="UTF-8" standalone="no"?>
<!DOCTYPE svg PUBLIC "-//W3C//DTD SVG 1.1//EN" "http://www.w3.org/Graphics/SVG/1.1/DTD/svg11.dtd">
<svg width="100%" height="100%" viewBox="0 0 24 38" version="1.1" xmlns="http://www.w3.org/2000/svg" xmlns:xlink="http://www.w3.org/1999/xlink" xml:space="preserve" xmlns:serif="http://www.serif.com/" style="fill-rule:evenodd;clip-rule:evenodd;stroke-linejoin:round;stroke-miterlimit:2;">
    <g transform="matrix(0.0400668,0,0,0.0400668,-6.01002,-9.11462)">
        <g transform="matrix(1.07734,0,0,0.947602,-33.1475,42.6368)">
            <rect x="170" y="203" width="556" height="985"/>
        </g>
        <g transform="matrix(0.976619,0,0,0.898871,11.9748,76.5292)">
            <rect x="170" y="203" width="556" height="985" style="fill:white;"/>
        </g>
        <g>
            <g>
                <g transform="matrix(-0.24618,0,0,0.707808,437.225,217.572)">
                    <rect x="140" y="141" width="597" height="597"/>
                </g>
                <g transform="matrix(-0.168697,0,0,0.19881,345.183,333.44)">
                    <rect x="140" y="141" width="597" height="597"/>
                </g>
                <g transform="matrix(-0.24618,0,0,0.707808,566.213,280.809)">
                    <rect x="140" y="141" width="597" height="597"/>
                </g>
                <g transform="matrix(-0.24618,0,0,0.707808,694.47,353.879)">
                    <rect x="140" y="141" width="597" height="597"/>
                </g>
                <g>
                    <g transform="matrix(-0.780714,0,0,1.44206,553.437,-1036.08)">
                        <rect x="240" y="964" width="94" height="242" style="fill:rgb(255,186,0);"/>
                    </g>
                    <g transform="matrix(-0.877784,0,0,0.367774,576.734,-0.468467)">
                        <rect x="240" y="964" width="94" height="242" style="fill:rgb(255,186,0);"/>
                    </g>
                    <g transform="matrix(-1.17315,0,0,0.183887,647.621,221.3)">
                        <rect x="240" y="964" width="94" height="242" style="fill:rgb(255,186,0);"/>
                    </g>
                    <g transform="matrix(-0.780714,0,0,1.44206,682.426,-972.845)">
                        <rect x="240" y="964" width="94" height="242" style="fill:rgb(255,186,0);"/>
                    </g>
                    <g transform="matrix(-0.780714,0,0,1.44206,682.426,-972.845)">
                        <rect x="240" y="964" width="94" height="242" style="fill:rgb(255,186,0);"/>
                    </g>
                    <g transform="matrix(-0.877784,0,0,0.367774,705.723,62.7694)">
                        <rect x="240" y="964" width="94" height="242" style="fill:rgb(255,186,0);"/>
                    </g>
                    <g transform="matrix(-1.17315,0,0,0.183887,776.61,284.537)">
                        <rect x="240" y="964" width="94" height="242" style="fill:rgb(255,186,0);"/>
                    </g>
                    <g transform="matrix(-0.780714,0,0,1.44206,810.683,-899.677)">
                        <rect x="240" y="964" width="94" height="242" style="fill:rgb(255,186,0);"/>
                    </g>
                    <g transform="matrix(-0.877784,0,0,0.367774,833.98,135.839)">
                        <rect x="240" y="964" width="94" height="242" style="fill:rgb(255,186,0);"/>
                    </g>
                    <g transform="matrix(-1.09153,0,0,0.183887,877.608,357.607)">
                        <rect x="240" y="964" width="94" height="242" style="fill:rgb(255,186,0);"/>
                    </g>
                </g>
            </g>
            <g transform="matrix(0.600471,0,0,1.31048,187.336,-577.927)">
                <rect x="114" y="1256" width="673.163" height="14"/>
            </g>
            <g transform="matrix(0.827749,0,0,0.785635,166.481,110.693)">
                <path d="M136.738,1099.95C144.073,1090.44 155.372,1085.68 170.637,1085.68C183.919,1085.68 194.425,1091.82 202.157,1104.11C209.69,1091.82 221.881,1085.68 238.732,1085.68C263.512,1085.68 275.902,1101.74 275.902,1133.85L275.902,1207L247.355,1207L247.355,1145.15C247.355,1120.17 240.516,1107.68 226.837,1107.68C213.159,1107.68 206.32,1121.56 206.32,1149.31L206.32,1207L177.476,1207L177.476,1147.53C177.476,1120.96 171.43,1107.68 159.337,1107.68C144.271,1107.68 136.738,1121.56 136.738,1149.31L136.738,1207L107.894,1207L107.894,1089.54L136.738,1089.54L136.738,1099.95Z" style="fill-rule:nonzero;"/>
                <path d="M330.615,1138.9L371.651,1089.54L410.307,1089.54L360.946,1141.28L414.173,1207L374.922,1207L331.21,1149.91L330.615,1207L301.772,1207L301.772,1003.9L330.615,1003.9L330.615,1138.9Z" style="fill-rule:nonzero;"/>
                <path d="M536.982,1207L508.733,1207L508.733,1196.3C500.407,1206.01 488.017,1210.87 471.563,1210.87C455.109,1210.87 441.976,1204.52 432.163,1191.84C422.35,1179.15 417.444,1164.28 417.444,1147.23C417.444,1130.18 422.449,1115.66 432.46,1103.67C442.471,1091.67 455.307,1085.68 470.968,1085.68C487.62,1085.68 500.208,1090.63 508.733,1100.55L508.733,1089.54L536.982,1089.54L536.982,1207ZM512.004,1148.12C512.004,1137.22 508.931,1128.25 502.786,1121.21C496.64,1114.17 488.76,1110.66 479.146,1110.66C469.531,1110.66 461.701,1114.08 455.654,1120.91C449.608,1127.75 446.585,1136.82 446.585,1148.12C446.585,1159.42 449.658,1168.54 455.803,1175.48C461.948,1182.42 469.878,1185.89 479.592,1185.89C489.305,1185.89 497.136,1182.52 503.083,1175.78C509.03,1169.04 512.004,1159.82 512.004,1148.12Z" style="fill-rule:nonzero;"/>
                <path d="M596.453,1207L567.61,1207L567.61,1115.41L553.634,1115.41L553.634,1091.92L567.61,1091.92L567.61,1049.7L596.453,1049.7L596.453,1091.92L619.35,1091.92L619.35,1115.41L596.453,1115.41L596.453,1207Z" style="fill-rule:nonzero;"/>
            </g>
        </g>
    </g>
</svg>
