<?xml version="1.0" encoding="UTF-8" standalone="no"?>
<!DOCTYPE svg PUBLIC "-//W3C//DTD SVG 1.1//EN" "http://www.w3.org/Graphics/SVG/1.1/DTD/svg11.dtd">
<svg width="100%" height="100%" viewBox="0 0 40 16" version="1.1" xmlns="http://www.w3.org/2000/svg" xmlns:xlink="http://www.w3.org/1999/xlink" xml:space="preserve" xmlns:serif="http://www.serif.com/" style="fill-rule:evenodd;clip-rule:evenodd;stroke-linejoin:round;stroke-miterlimit:2;">
    <g transform="matrix(1.01935,0,0,1.03924,-0.368498,-2.28913)">
        <rect x="0" y="-0" width="40" height="20" style="fill:rgb(255,186,2);"/>
    </g>
    <g transform="matrix(0.0751585,0,0,0.0724157,-2.96614,-40.9427)">
        <path d="M99.387,653.511C106.303,644.673 116.957,640.254 131.349,640.254C143.872,640.254 153.778,645.962 161.068,657.377C168.17,645.962 179.666,640.254 195.553,640.254C218.917,640.254 230.599,655.168 230.599,684.996L230.599,752.937L203.684,752.937L203.684,695.491C203.684,672.291 197.235,660.692 184.338,660.692C171.441,660.692 164.993,673.58 164.993,699.357L164.993,752.937L137.797,752.937L137.797,697.7C137.797,673.028 132.096,660.692 120.695,660.692C106.489,660.692 99.387,673.58 99.387,699.357L99.387,752.937L72.191,752.937L72.191,643.845L99.387,643.845L99.387,653.511Z" style="fill-rule:nonzero;"/>
        <path d="M282.168,689.691L320.859,643.845L357.307,643.845L310.766,691.9L360.952,752.937L323.943,752.937L282.729,699.91L282.168,752.937L254.972,752.937L254.972,564.304L282.168,564.304L282.168,689.691Z" style="fill-rule:nonzero;"/>
        <path d="M476.725,752.937L450.09,752.937L450.09,742.994C442.24,752.016 430.558,756.527 415.044,756.527C399.53,756.527 387.147,750.635 377.895,738.852C368.643,727.068 364.017,713.259 364.017,697.424C364.017,681.59 368.737,668.103 378.176,656.963C387.615,645.824 399.717,640.254 414.483,640.254C430.184,640.254 442.053,644.857 450.09,654.063L450.09,643.845L476.725,643.845L476.725,752.937ZM453.174,698.253C453.174,688.126 450.277,679.794 444.483,673.258C438.688,666.722 431.259,663.454 422.193,663.454C413.128,663.454 405.745,666.63 400.044,672.982C394.343,679.334 391.493,687.758 391.493,698.253C391.493,708.748 394.39,717.217 400.184,723.662C405.979,730.106 413.455,733.328 422.614,733.328C431.773,733.328 439.156,730.198 444.763,723.938C450.37,717.678 453.174,709.116 453.174,698.253Z" style="fill-rule:nonzero;"/>
        <path d="M532.78,752.937L505.584,752.937L505.584,667.872L492.407,667.872L492.407,646.054L505.584,646.054L505.584,606.836L532.78,606.836L532.78,646.054L554.368,646.054L554.368,667.872L532.78,667.872L532.78,752.937Z" style="fill-rule:nonzero;"/>
    </g>
    <g transform="matrix(0.986928,0,0,1,-0.133474,-2.64212)">
        <rect x="2.616" y="16.981" width="35.103" height="1.661"/>
    </g>
</svg>
