<?xml version="1.0" encoding="UTF-8" standalone="no"?>
<!DOCTYPE svg PUBLIC "-//W3C//DTD SVG 1.1//EN" "http://www.w3.org/Graphics/SVG/1.1/DTD/svg11.dtd">
<svg width="100%" height="100%" viewBox="0 0 40 40" version="1.1" xmlns="http://www.w3.org/2000/svg" xmlns:xlink="http://www.w3.org/1999/xlink" xml:space="preserve" xmlns:serif="http://www.serif.com/" style="fill-rule:evenodd;clip-rule:evenodd;stroke-linejoin:round;stroke-miterlimit:2;">
    <g transform="matrix(2.65286,0,0,3.51115,-2.76819,0.421535)">
        <rect x="0" y="-0.778" width="51.438" height="14.778" style="fill:rgb(255,186,0);"/>
    </g>
    <g transform="matrix(0.0458037,0,0,0.0458037,-35.0329,-30.4788)">
        <g>
            <g transform="matrix(0.715854,3.68086e-17,-6.89282e-17,-0.777673,648.03,2347.24)">
                <path d="M757.192,1607.95L757.192,2131.24L233.896,2131.24L757.192,1607.95Z"/>
            </g>
            <g transform="matrix(0.832594,4.28113e-17,-8.01688e-17,-0.904494,620.725,2617.53)">
                <path d="M757.192,1607.95L757.192,2131.24L233.896,2131.24L757.192,1607.95Z"/>
            </g>
            <g transform="matrix(0.416297,2.14057e-17,-4.00844e-17,-0.452247,846.842,1653.68)">
                <path d="M757.192,1607.95L757.192,2131.24L233.896,2131.24L757.192,1607.95Z" style="fill:rgb(253,185,18);"/>
            </g>
            <g transform="matrix(0.832594,4.28113e-17,-8.01688e-17,-0.904494,934.239,2617.53)">
                <path d="M757.192,1607.95L757.192,2131.24L233.896,2131.24L757.192,1607.95Z"/>
            </g>
            <g transform="matrix(0.416297,2.14057e-17,-4.00844e-17,-0.452247,1160.36,1653.68)">
                <path d="M757.192,1607.95L757.192,2131.24L233.896,2131.24L757.192,1607.95Z" style="fill:rgb(253,185,18);"/>
            </g>
            <g transform="matrix(0.715854,-3.68086e-17,-6.89282e-17,0.777673,648.03,-153.673)">
                <path d="M757.192,1607.95L757.192,2131.24L233.896,2131.24L757.192,1607.95Z"/>
            </g>
            <g transform="matrix(0.715854,-3.68086e-17,-6.89282e-17,0.777673,1022.63,-153.673)">
                <path d="M757.192,1607.95L757.192,2131.24L233.896,2131.24L757.192,1607.95Z"/>
            </g>
            <g transform="matrix(0.832594,4.28113e-17,-8.01688e-17,-0.904494,620.725,2617.53)">
                <path d="M757.192,1607.95L757.192,2131.24L233.896,2131.24L757.192,1607.95Z"/>
            </g>
            <g transform="matrix(0.416297,2.14057e-17,-4.00844e-17,-0.452247,846.842,1653.68)">
                <path d="M757.192,1607.95L757.192,2131.24L233.896,2131.24L757.192,1607.95Z" style="fill:rgb(253,185,18);"/>
            </g>
            <g transform="matrix(0.715854,-3.68086e-17,-6.89282e-17,0.777673,648.03,-153.673)">
                <path d="M757.192,1607.95L757.192,2131.24L233.896,2131.24L757.192,1607.95Z"/>
            </g>
            <g transform="matrix(0.832594,-4.28113e-17,-8.01688e-17,0.904494,620.725,-423.96)">
                <path d="M757.192,1607.95L757.192,2131.24L233.896,2131.24L757.192,1607.95Z"/>
            </g>
            <g transform="matrix(0.416297,-2.14057e-17,-4.00844e-17,0.452247,846.842,539.889)">
                <path d="M757.192,1607.95L757.192,2131.24L233.896,2131.24L757.192,1607.95Z" style="fill:rgb(253,185,18);"/>
            </g>
            <g transform="matrix(0.832594,-4.28113e-17,-8.01688e-17,0.904494,934.239,-423.96)">
                <path d="M757.192,1607.95L757.192,2131.24L233.896,2131.24L757.192,1607.95Z"/>
            </g>
            <g transform="matrix(0.416297,-2.14057e-17,-4.00844e-17,0.452247,1160.36,539.889)">
                <path d="M757.192,1607.95L757.192,2131.24L233.896,2131.24L757.192,1607.95Z" style="fill:rgb(253,185,18);"/>
            </g>
            <g transform="matrix(0.832594,-4.28113e-17,-8.01688e-17,0.904494,620.725,-423.96)">
                <path d="M757.192,1607.95L757.192,2131.24L233.896,2131.24L757.192,1607.95Z"/>
            </g>
            <g transform="matrix(0.416297,-2.14057e-17,-4.00844e-17,0.452247,846.842,539.889)">
                <path d="M757.192,1607.95L757.192,2131.24L233.896,2131.24L757.192,1607.95Z" style="fill:rgb(253,185,18);"/>
            </g>
            <g transform="matrix(0.715854,3.68086e-17,-6.89282e-17,-0.777673,648.03,2347.24)">
                <path d="M757.192,1607.95L757.192,2131.24L233.896,2131.24L757.192,1607.95Z"/>
            </g>
            <g transform="matrix(0.832594,4.28113e-17,-8.01688e-17,-0.904494,620.725,2617.53)">
                <path d="M757.192,1607.95L757.192,2131.24L233.896,2131.24L757.192,1607.95Z"/>
            </g>
            <g transform="matrix(0.416297,2.14057e-17,-4.00844e-17,-0.452247,846.842,1653.68)">
                <path d="M757.192,1607.95L757.192,2131.24L233.896,2131.24L757.192,1607.95Z" style="fill:rgb(253,185,18);"/>
            </g>
            <g transform="matrix(0.832594,4.28113e-17,-8.01688e-17,-0.904494,934.239,2617.53)">
                <path d="M757.192,1607.95L757.192,2131.24L233.896,2131.24L757.192,1607.95Z"/>
            </g>
            <g transform="matrix(0.416297,2.14057e-17,-4.00844e-17,-0.452247,1160.36,1653.68)">
                <path d="M757.192,1607.95L757.192,2131.24L233.896,2131.24L757.192,1607.95Z" style="fill:rgb(255,186,0);"/>
            </g>
            <g transform="matrix(0.715854,-3.68086e-17,-6.89282e-17,0.777673,648.03,-153.673)">
                <path d="M757.192,1607.95L757.192,2131.24L233.896,2131.24L757.192,1607.95Z"/>
            </g>
            <g transform="matrix(0.715854,-3.68086e-17,-6.89282e-17,0.777673,1022.63,-153.673)">
                <path d="M757.192,1607.95L757.192,2131.24L233.896,2131.24L757.192,1607.95Z"/>
            </g>
            <g transform="matrix(0.832594,4.28113e-17,-8.01688e-17,-0.904494,620.725,2617.53)">
                <path d="M757.192,1607.95L757.192,2131.24L233.896,2131.24L757.192,1607.95Z"/>
            </g>
            <g transform="matrix(0.416297,2.14057e-17,-4.00844e-17,-0.452247,846.842,1653.68)">
                <path d="M757.192,1607.95L757.192,2131.24L233.896,2131.24L757.192,1607.95Z" style="fill:rgb(255,186,0);"/>
            </g>
            <g transform="matrix(0.985703,0,0,1,16.6135,2.9233)">
                <rect x="944.212" y="666.549" width="217.847" height="23.282" style="fill:rgb(255,186,0);"/>
            </g>
            <g transform="matrix(0.985703,0,0,1,329.701,2.9233)">
                <rect x="944.212" y="666.549" width="217.847" height="23.282" style="fill:rgb(255,186,0);"/>
            </g>
            <g transform="matrix(0.715854,-3.68086e-17,-6.89282e-17,0.777673,648.03,-153.673)">
                <path d="M757.192,1607.95L757.192,2131.24L233.896,2131.24L757.192,1607.95Z"/>
            </g>
            <g transform="matrix(0.832594,-4.28113e-17,-8.01688e-17,0.904494,620.725,-423.96)">
                <path d="M757.192,1607.95L757.192,2131.24L233.896,2131.24L757.192,1607.95Z"/>
            </g>
            <g transform="matrix(0.416297,-2.14057e-17,-4.00844e-17,0.452247,846.842,539.889)">
                <path d="M757.192,1607.95L757.192,2131.24L233.896,2131.24L757.192,1607.95Z" style="fill:rgb(253,185,18);"/>
            </g>
            <g transform="matrix(0.832594,-4.28113e-17,-8.01688e-17,0.904494,934.239,-423.96)">
                <path d="M757.192,1607.95L757.192,2131.24L233.896,2131.24L757.192,1607.95Z"/>
            </g>
            <g transform="matrix(0.416297,-2.14057e-17,-4.00844e-17,0.452247,1160.36,539.889)">
                <path d="M757.192,1607.95L757.192,2131.24L233.896,2131.24L757.192,1607.95Z" style="fill:rgb(255,186,0);"/>
            </g>
            <g transform="matrix(0.832594,-4.28113e-17,-8.01688e-17,0.904494,620.725,-423.96)">
                <path d="M757.192,1607.95L757.192,2131.24L233.896,2131.24L757.192,1607.95Z"/>
            </g>
            <g transform="matrix(0.416297,-2.14057e-17,-4.00844e-17,0.452247,846.842,539.889)">
                <path d="M757.192,1607.95L757.192,2131.24L233.896,2131.24L757.192,1607.95Z" style="fill:rgb(255,186,0);"/>
            </g>
            <g transform="matrix(0.985703,0,0,1,16.6135,833.595)">
                <rect x="944.212" y="666.549" width="217.847" height="23.282" style="fill:rgb(255,186,0);"/>
            </g>
            <g transform="matrix(0.967652,0,0,1,350.677,833.595)">
                <rect x="944.212" y="666.549" width="217.847" height="23.282" style="fill:rgb(255,186,0);"/>
            </g>
            <g transform="matrix(1,0,0,1.53614,-398.256,-589.046)">
                <rect x="1324.96" y="1067.14" width="357.213" height="63.068" style="fill:rgb(255,186,0);"/>
            </g>
        </g>
    </g>
</svg>
