<?xml version="1.0" encoding="UTF-8" standalone="no"?>
<!DOCTYPE svg PUBLIC "-//W3C//DTD SVG 1.1//EN" "http://www.w3.org/Graphics/SVG/1.1/DTD/svg11.dtd">
<svg width="100%" height="100%" viewBox="0 0 40 14" version="1.1" xmlns="http://www.w3.org/2000/svg" xmlns:xlink="http://www.w3.org/1999/xlink" xml:space="preserve" xmlns:serif="http://www.serif.com/" style="fill-rule:evenodd;clip-rule:evenodd;stroke-linejoin:round;stroke-miterlimit:2;">
    <g transform="matrix(0.827035,0,0,1.09461,-1.58576,0.0735851)">
        <rect x="0" y="-0.778" width="51.438" height="14.778" style="fill:rgb(255,186,0);"/>
    </g>
    <g transform="matrix(0.0210888,0,0,0.0210888,-6.07984,-37.4934)">
        <g transform="matrix(0.369803,-9.05755e-17,8.59672e-17,0.350988,890.196,1636.59)">
            <g transform="matrix(1038.47,0,0,1038.47,1437.18,1207)">
            </g>
            <g transform="matrix(1038.47,0,0,1038.47,1783,1207)">
            </g>
            <g transform="matrix(1038.47,0,0,1038.47,3513.62,1207)">
            </g>
            <text x="-178.84px" y="1207px" style="font-family:'Helvetica-Bold', 'Helvetica';font-weight:700;font-size:1038.47px;">orkﬂow</text>
        </g>
        <g transform="matrix(0.677109,0,0,0.677109,-263.861,1324.58)">
            <g transform="matrix(0.715854,3.68086e-17,-6.89282e-17,-0.777673,648.03,2347.24)">
                <path d="M757.192,1607.95L757.192,2131.24L233.896,2131.24L757.192,1607.95Z"/>
            </g>
            <g transform="matrix(0.832594,4.28113e-17,-8.01688e-17,-0.904494,620.725,2617.53)">
                <path d="M757.192,1607.95L757.192,2131.24L233.896,2131.24L757.192,1607.95Z"/>
            </g>
            <g transform="matrix(0.416297,2.14057e-17,-4.00844e-17,-0.452247,846.842,1653.68)">
                <path d="M757.192,1607.95L757.192,2131.24L233.896,2131.24L757.192,1607.95Z" style="fill:rgb(253,185,18);"/>
            </g>
            <g transform="matrix(0.832594,4.28113e-17,-8.01688e-17,-0.904494,934.239,2617.53)">
                <path d="M757.192,1607.95L757.192,2131.24L233.896,2131.24L757.192,1607.95Z"/>
            </g>
            <g transform="matrix(0.416297,2.14057e-17,-4.00844e-17,-0.452247,1160.36,1653.68)">
                <path d="M757.192,1607.95L757.192,2131.24L233.896,2131.24L757.192,1607.95Z" style="fill:rgb(253,185,18);"/>
            </g>
            <g transform="matrix(0.715854,-3.68086e-17,-6.89282e-17,0.777673,648.03,-153.673)">
                <path d="M757.192,1607.95L757.192,2131.24L233.896,2131.24L757.192,1607.95Z"/>
            </g>
            <g transform="matrix(0.715854,-3.68086e-17,-6.89282e-17,0.777673,1022.63,-153.673)">
                <path d="M757.192,1607.95L757.192,2131.24L233.896,2131.24L757.192,1607.95Z"/>
            </g>
            <g transform="matrix(0.832594,4.28113e-17,-8.01688e-17,-0.904494,620.725,2617.53)">
                <path d="M757.192,1607.95L757.192,2131.24L233.896,2131.24L757.192,1607.95Z"/>
            </g>
            <g transform="matrix(0.416297,2.14057e-17,-4.00844e-17,-0.452247,846.842,1653.68)">
                <path d="M757.192,1607.95L757.192,2131.24L233.896,2131.24L757.192,1607.95Z" style="fill:rgb(253,185,18);"/>
            </g>
            <g transform="matrix(0.715854,-3.68086e-17,-6.89282e-17,0.777673,648.03,-153.673)">
                <path d="M757.192,1607.95L757.192,2131.24L233.896,2131.24L757.192,1607.95Z"/>
            </g>
            <g transform="matrix(0.832594,-4.28113e-17,-8.01688e-17,0.904494,620.725,-423.96)">
                <path d="M757.192,1607.95L757.192,2131.24L233.896,2131.24L757.192,1607.95Z"/>
            </g>
            <g transform="matrix(0.416297,-2.14057e-17,-4.00844e-17,0.452247,846.842,539.889)">
                <path d="M757.192,1607.95L757.192,2131.24L233.896,2131.24L757.192,1607.95Z" style="fill:rgb(253,185,18);"/>
            </g>
            <g transform="matrix(0.832594,-4.28113e-17,-8.01688e-17,0.904494,934.239,-423.96)">
                <path d="M757.192,1607.95L757.192,2131.24L233.896,2131.24L757.192,1607.95Z"/>
            </g>
            <g transform="matrix(0.416297,-2.14057e-17,-4.00844e-17,0.452247,1160.36,539.889)">
                <path d="M757.192,1607.95L757.192,2131.24L233.896,2131.24L757.192,1607.95Z" style="fill:rgb(253,185,18);"/>
            </g>
            <g transform="matrix(0.832594,-4.28113e-17,-8.01688e-17,0.904494,620.725,-423.96)">
                <path d="M757.192,1607.95L757.192,2131.24L233.896,2131.24L757.192,1607.95Z"/>
            </g>
            <g transform="matrix(0.416297,-2.14057e-17,-4.00844e-17,0.452247,846.842,539.889)">
                <path d="M757.192,1607.95L757.192,2131.24L233.896,2131.24L757.192,1607.95Z" style="fill:rgb(253,185,18);"/>
            </g>
            <g transform="matrix(0.715854,3.68086e-17,-6.89282e-17,-0.777673,648.03,2347.24)">
                <path d="M757.192,1607.95L757.192,2131.24L233.896,2131.24L757.192,1607.95Z"/>
            </g>
            <g transform="matrix(0.832594,4.28113e-17,-8.01688e-17,-0.904494,620.725,2617.53)">
                <path d="M757.192,1607.95L757.192,2131.24L233.896,2131.24L757.192,1607.95Z"/>
            </g>
            <g transform="matrix(0.416297,2.14057e-17,-4.00844e-17,-0.452247,846.842,1653.68)">
                <path d="M757.192,1607.95L757.192,2131.24L233.896,2131.24L757.192,1607.95Z" style="fill:rgb(253,185,18);"/>
            </g>
            <g transform="matrix(0.832594,4.28113e-17,-8.01688e-17,-0.904494,934.239,2617.53)">
                <path d="M757.192,1607.95L757.192,2131.24L233.896,2131.24L757.192,1607.95Z"/>
            </g>
            <g transform="matrix(0.416297,2.14057e-17,-4.00844e-17,-0.452247,1160.36,1653.68)">
                <path d="M757.192,1607.95L757.192,2131.24L233.896,2131.24L757.192,1607.95Z" style="fill:rgb(255,186,0);"/>
            </g>
            <g transform="matrix(0.715854,-3.68086e-17,-6.89282e-17,0.777673,648.03,-153.673)">
                <path d="M757.192,1607.95L757.192,2131.24L233.896,2131.24L757.192,1607.95Z"/>
            </g>
            <g transform="matrix(0.715854,-3.68086e-17,-6.89282e-17,0.777673,1022.63,-153.673)">
                <path d="M757.192,1607.95L757.192,2131.24L233.896,2131.24L757.192,1607.95Z"/>
            </g>
            <g transform="matrix(0.832594,4.28113e-17,-8.01688e-17,-0.904494,620.725,2617.53)">
                <path d="M757.192,1607.95L757.192,2131.24L233.896,2131.24L757.192,1607.95Z"/>
            </g>
            <g transform="matrix(0.416297,2.14057e-17,-4.00844e-17,-0.452247,846.842,1653.68)">
                <path d="M757.192,1607.95L757.192,2131.24L233.896,2131.24L757.192,1607.95Z" style="fill:rgb(255,186,0);"/>
            </g>
            <g transform="matrix(0.985703,0,0,1,16.6135,2.9233)">
                <rect x="944.212" y="666.549" width="217.847" height="23.282" style="fill:rgb(255,186,0);"/>
            </g>
            <g transform="matrix(0.985703,0,0,1,329.701,2.9233)">
                <rect x="944.212" y="666.549" width="217.847" height="23.282" style="fill:rgb(255,186,0);"/>
            </g>
            <g transform="matrix(0.715854,-3.68086e-17,-6.89282e-17,0.777673,648.03,-153.673)">
                <path d="M757.192,1607.95L757.192,2131.24L233.896,2131.24L757.192,1607.95Z"/>
            </g>
            <g transform="matrix(0.832594,-4.28113e-17,-8.01688e-17,0.904494,620.725,-423.96)">
                <path d="M757.192,1607.95L757.192,2131.24L233.896,2131.24L757.192,1607.95Z"/>
            </g>
            <g transform="matrix(0.416297,-2.14057e-17,-4.00844e-17,0.452247,846.842,539.889)">
                <path d="M757.192,1607.95L757.192,2131.24L233.896,2131.24L757.192,1607.95Z" style="fill:rgb(253,185,18);"/>
            </g>
            <g transform="matrix(0.832594,-4.28113e-17,-8.01688e-17,0.904494,934.239,-423.96)">
                <path d="M757.192,1607.95L757.192,2131.24L233.896,2131.24L757.192,1607.95Z"/>
            </g>
            <g transform="matrix(0.416297,-2.14057e-17,-4.00844e-17,0.452247,1160.36,539.889)">
                <path d="M757.192,1607.95L757.192,2131.24L233.896,2131.24L757.192,1607.95Z" style="fill:rgb(255,186,0);"/>
            </g>
            <g transform="matrix(0.832594,-4.28113e-17,-8.01688e-17,0.904494,620.725,-423.96)">
                <path d="M757.192,1607.95L757.192,2131.24L233.896,2131.24L757.192,1607.95Z"/>
            </g>
            <g transform="matrix(0.416297,-2.14057e-17,-4.00844e-17,0.452247,846.842,539.889)">
                <path d="M757.192,1607.95L757.192,2131.24L233.896,2131.24L757.192,1607.95Z" style="fill:rgb(255,186,0);"/>
            </g>
            <g transform="matrix(0.985703,0,0,1,16.6135,833.595)">
                <rect x="944.212" y="666.549" width="217.847" height="23.282" style="fill:rgb(255,186,0);"/>
            </g>
            <g transform="matrix(0.967652,0,0,1,350.677,833.595)">
                <rect x="944.212" y="666.549" width="217.847" height="23.282" style="fill:rgb(255,186,0);"/>
            </g>
            <g transform="matrix(1,0,0,1.53614,-398.256,-589.046)">
                <rect x="1324.96" y="1067.14" width="357.213" height="63.068" style="fill:rgb(255,186,0);"/>
            </g>
        </g>
        <g transform="matrix(0.622005,-1.52347e-16,1.52347e-16,0.622005,318.959,608.224)">
            <g transform="matrix(1.05361,0,0,1,-43.6204,0)">
                <g transform="matrix(600,0,0,600,2781.31,2794.97)">
                </g>
                <text x="813.737px" y="2794.97px" style="font-family:'Helvetica-Bold', 'Helvetica';font-weight:700;font-size:600px;">anager</text>
            </g>
        </g>
    </g>
</svg>
